<svg xmlns="http://www.w3.org/2000/svg" width="256" height="256" viewBox="0 0 100 100"><rect width="100" height="100" rx="20" fill="#f68400"></rect><path fill="#ffffff" d="M29.21 30.48Q35.31 30.48 39.88 32.90Q44.44 35.32 46.95 39.69Q49.45 44.06 49.45 49.78L49.45 49.78Q49.45 55.45 46.95 59.85Q44.44 64.25 39.85 66.67Q35.26 69.09 29.21 69.09L29.21 69.09L14.74 69.09L14.74 30.48L29.21 30.48ZM28.60 60.95Q33.94 60.95 36.91 58.03Q39.88 55.12 39.88 49.78L39.88 49.78Q39.88 44.45 36.91 41.48Q33.94 38.51 28.60 38.51L28.60 38.51L24.15 38.51L24.15 60.95L28.60 60.95ZM52.86 53.69Q52.86 48.96 54.65 45.38Q56.43 41.81 59.51 39.88Q62.59 37.96 66.39 37.96L66.39 37.96Q69.63 37.96 72.08 39.28Q74.53 40.60 75.85 42.74L75.85 42.74L75.85 38.40L85.25 38.40L85.25 69.09L75.85 69.09L75.85 64.74Q74.47 66.89 72.03 68.21Q69.58 69.53 66.33 69.53L66.33 69.53Q62.59 69.53 59.51 67.57Q56.43 65.62 54.65 62.02Q52.86 58.42 52.86 53.69L52.86 53.69ZM75.85 53.74Q75.85 50.22 73.90 48.19Q71.94 46.15 69.14 46.15L69.14 46.15Q66.33 46.15 64.38 48.16Q62.43 50.17 62.43 53.69L62.43 53.69Q62.43 57.21 64.38 59.27Q66.33 61.33 69.14 61.33L69.14 61.33Q71.94 61.33 73.90 59.30Q75.85 57.26 75.85 53.74L75.85 53.74Z"></path></svg>